<svg xmlns="http://www.w3.org/2000/svg" xmlns:xlink="http://www.w3.org/1999/xlink" width="224" height="127" viewBox="0 0 224 127"><defs><clipPath id="b"><rect width="224" height="127"/></clipPath></defs><g id="a" clip-path="url(#b)"><rect width="224" height="127" fill="#fff"/><path d="M224,106v19a2.006,2.006,0,0,1-2,2H2a2.006,2.006,0,0,1-2-2V106Z" fill="#00b350"/><path d="M224,2a2.006,2.006,0,0,0-2-2H2A2.006,2.006,0,0,0,0,2V106H224Z" fill="#fff"/><path d="M8.234,23.276a6.439,6.439,0,0,1-3.082-.713,5.419,5.419,0,0,1-2.093-1.932,9.43,9.43,0,0,1-1.127-2.645,12.111,12.111,0,0,1-.368-3.036,11.8,11.8,0,0,1,.379-3.024,9.292,9.292,0,0,1,1.15-2.645A5.652,5.652,0,0,1,5.187,7.349a6.24,6.24,0,0,1,3.048-.724q3.772,0,5.2,2.9l-1.794.92a4.968,4.968,0,0,0-1.414-1.46,3.626,3.626,0,0,0-1.99-.495A3.768,3.768,0,0,0,5.52,9.522a5.383,5.383,0,0,0-1.484,2.427,10.76,10.76,0,0,0-.4,3,8.469,8.469,0,0,0,1.173,4.543,3.786,3.786,0,0,0,3.427,1.9,3.886,3.886,0,0,0,3.5-2.047l1.84.69a5.5,5.5,0,0,1-2,2.357A5.9,5.9,0,0,1,8.234,23.276Zm16.859-1.633A4.746,4.746,0,0,1,21.3,23.276a4.746,4.746,0,0,1-3.8-1.633,6.7,6.7,0,0,1-1.4-4.508,6.742,6.742,0,0,1,1.4-4.519,4.731,4.731,0,0,1,3.8-1.645A4.746,4.746,0,0,1,25.093,12.6a6.7,6.7,0,0,1,1.4,4.508A6.788,6.788,0,0,1,25.093,21.643Zm-6.141-1.357A2.777,2.777,0,0,0,21.3,21.413a2.737,2.737,0,0,0,2.334-1.139,5.237,5.237,0,0,0,.84-3.163,5.247,5.247,0,0,0-.84-3.151,2.727,2.727,0,0,0-2.334-1.15,2.737,2.737,0,0,0-2.335,1.139,5.281,5.281,0,0,0-.839,3.186A5.3,5.3,0,0,0,18.952,20.286ZM29.739,23V7.337l2-.943V23Zm12.65,0V21.919a4.736,4.736,0,0,1-3.335,1.357,4.234,4.234,0,0,1-2.979-1.023A3.78,3.78,0,0,1,34.96,19.32a3.456,3.456,0,0,1,1.265-2.9,4.923,4.923,0,0,1,3.128-.989,6.03,6.03,0,0,1,3.036.759v-.828a2.671,2.671,0,0,0-.655-2.059,2.757,2.757,0,0,0-1.9-.587,5.855,5.855,0,0,0-3.427,1.173l-.575-1.679a7.565,7.565,0,0,1,4.255-1.242q4.186,0,4.186,4.232V23Zm-3.036-1.495a3.9,3.9,0,0,0,3.036-1.541V17.94a5.15,5.15,0,0,0-2.76-.782,3.39,3.39,0,0,0-2,.552,1.847,1.847,0,0,0-.782,1.61,2.045,2.045,0,0,0,.656,1.587A2.649,2.649,0,0,0,39.353,21.505Zm13.409,1.771a4.229,4.229,0,0,1-3.013-1.288V23h-2V7.337l2-.943v5.865a3.814,3.814,0,0,1,2.944-1.288A4.344,4.344,0,0,1,56.235,12.6a6.929,6.929,0,0,1,1.334,4.508,7.162,7.162,0,0,1-1.277,4.566A4.268,4.268,0,0,1,52.762,23.276Zm-.276-1.863a2.56,2.56,0,0,0,2.265-1.139,5.591,5.591,0,0,0,.771-3.163,5.562,5.562,0,0,0-.771-3.2,2.586,2.586,0,0,0-2.265-1.1,2.952,2.952,0,0,0-1.656.483,3.3,3.3,0,0,0-1.081,1.081v5.451a3.215,3.215,0,0,0,1.173,1.161A3.076,3.076,0,0,0,52.486,21.413Zm16.491.23a5.226,5.226,0,0,1-7.59,0,6.7,6.7,0,0,1-1.4-4.508,6.742,6.742,0,0,1,1.4-4.519,5.214,5.214,0,0,1,7.59-.012,6.7,6.7,0,0,1,1.4,4.508A6.788,6.788,0,0,1,68.977,21.643Zm-6.141-1.357a2.777,2.777,0,0,0,2.346,1.127,2.737,2.737,0,0,0,2.335-1.139,5.237,5.237,0,0,0,.84-3.163,5.247,5.247,0,0,0-.84-3.151,2.954,2.954,0,0,0-4.669-.011,5.281,5.281,0,0,0-.84,3.186A5.3,5.3,0,0,0,62.836,20.286ZM73.508,23V11.247h2v1.541a2.851,2.851,0,0,1,2.783-1.817,2.731,2.731,0,0,1,1.817.6l-.3,1.886a2.893,2.893,0,0,0-1.679-.506,2.5,2.5,0,0,0-1.828.805,3.636,3.636,0,0,0-.793,2.622V23Zm15.226,0V21.919A4.736,4.736,0,0,1,85.4,23.276a4.234,4.234,0,0,1-2.979-1.023,3.78,3.78,0,0,1-1.116-2.933,3.456,3.456,0,0,1,1.265-2.9,4.923,4.923,0,0,1,3.128-.989,6.03,6.03,0,0,1,3.036.759v-.828a2.671,2.671,0,0,0-.656-2.059,2.757,2.757,0,0,0-1.9-.587,5.855,5.855,0,0,0-3.427,1.173l-.575-1.679a7.564,7.564,0,0,1,4.255-1.242q4.186,0,4.186,4.232V23ZM85.7,21.505a3.9,3.9,0,0,0,3.036-1.541V17.94a5.15,5.15,0,0,0-2.76-.782,3.39,3.39,0,0,0-2,.552,1.847,1.847,0,0,0-.782,1.61,2.045,2.045,0,0,0,.655,1.587A2.649,2.649,0,0,0,85.7,21.505Zm12.558,1.771a4.28,4.28,0,0,1-3.542-1.656A7.073,7.073,0,0,1,93.4,17.112,6.971,6.971,0,0,1,94.725,12.6a4.591,4.591,0,0,1,6.5-.529V7.337l2-.943V23h-2v-.92A3.933,3.933,0,0,1,98.256,23.276Zm.276-1.863a2.969,2.969,0,0,0,2.691-1.587v-5.52a3,3,0,0,0-2.691-1.495,2.666,2.666,0,0,0-2.3,1.116,5.386,5.386,0,0,0-.8,3.185,5.313,5.313,0,0,0,.839,3.082A2.617,2.617,0,0,0,98.532,21.413Zm16.79.23a5.226,5.226,0,0,1-7.59,0,6.7,6.7,0,0,1-1.4-4.508,6.742,6.742,0,0,1,1.4-4.519,5.214,5.214,0,0,1,7.59-.012,6.7,6.7,0,0,1,1.4,4.508A6.788,6.788,0,0,1,115.322,21.643Zm-6.141-1.357a2.777,2.777,0,0,0,2.346,1.127,2.737,2.737,0,0,0,2.335-1.139,5.237,5.237,0,0,0,.84-3.163,5.247,5.247,0,0,0-.84-3.151,2.954,2.954,0,0,0-4.669-.011,5.281,5.281,0,0,0-.84,3.186A5.3,5.3,0,0,0,109.181,20.286ZM119.853,23V11.247h2v1.541a2.851,2.851,0,0,1,2.783-1.817,2.731,2.731,0,0,1,1.817.6l-.3,1.886a2.893,2.893,0,0,0-1.679-.506,2.5,2.5,0,0,0-1.828.805,3.636,3.636,0,0,0-.793,2.622V23Zm22.655-1.357a5.226,5.226,0,0,1-7.59,0,6.7,6.7,0,0,1-1.4-4.508,6.742,6.742,0,0,1,1.4-4.519,5.214,5.214,0,0,1,7.59-.012,6.7,6.7,0,0,1,1.4,4.508A6.788,6.788,0,0,1,142.508,21.643Zm-6.141-1.357a2.777,2.777,0,0,0,2.346,1.127,2.737,2.737,0,0,0,2.334-1.139,5.237,5.237,0,0,0,.84-3.163,5.247,5.247,0,0,0-.84-3.151,2.954,2.954,0,0,0-4.669-.011,5.281,5.281,0,0,0-.84,3.186A5.3,5.3,0,0,0,136.367,20.286ZM155.71,9.108a1.257,1.257,0,0,1-1.242-1.242,1.259,1.259,0,0,1,.368-.908,1.177,1.177,0,0,1,.874-.379,1.2,1.2,0,0,1,.9.379,1.259,1.259,0,0,1,.368.908,1.183,1.183,0,0,1-.368.885A1.241,1.241,0,0,1,155.71,9.108Zm-6,3.887V23h-2V12.995h-1.817V11.247h1.817V9.292a2.542,2.542,0,0,1,.736-2.047,2.721,2.721,0,0,1,1.817-.621,4.578,4.578,0,0,1,2.185.552V8.855a4.074,4.074,0,0,0-1.679-.437.944.944,0,0,0-.851.322,1.652,1.652,0,0,0-.207.9v1.61h2.737v1.748ZM154.721,23V11.247h2V23Zm10,.276a4.34,4.34,0,0,1-3.565-1.622,7,7,0,0,1-1.311-4.519,7.011,7.011,0,0,1,1.323-4.531,4.434,4.434,0,0,1,3.645-1.633,3.959,3.959,0,0,1,4.117,2.737l-1.886.69a2.2,2.2,0,0,0-2.208-1.564,2.461,2.461,0,0,0-2.208,1.127,5.786,5.786,0,0,0-.736,3.174,5.676,5.676,0,0,0,.736,3.139,2.4,2.4,0,0,0,2.139,1.115,2.293,2.293,0,0,0,2.392-1.748l1.863.621a4.052,4.052,0,0,1-1.552,2.231A4.669,4.669,0,0,1,164.726,23.276Zm9.223-14.513a1.263,1.263,0,0,1-.9.345,1.183,1.183,0,0,1-.885-.368,1.213,1.213,0,0,1-.357-.874,1.259,1.259,0,0,1,.368-.908,1.176,1.176,0,0,1,.874-.379,1.2,1.2,0,0,1,.9.379,1.259,1.259,0,0,1,.368.908A1.221,1.221,0,0,1,173.949,8.763ZM172.063,23V11.247h2V23Zm12.558,0V21.919a4.736,4.736,0,0,1-3.335,1.357,4.234,4.234,0,0,1-2.979-1.023,3.78,3.78,0,0,1-1.116-2.933,3.456,3.456,0,0,1,1.265-2.9,4.923,4.923,0,0,1,3.128-.989,6.03,6.03,0,0,1,3.036.759v-.828a2.671,2.671,0,0,0-.656-2.059,2.756,2.756,0,0,0-1.9-.587,5.855,5.855,0,0,0-3.427,1.173l-.575-1.679a7.565,7.565,0,0,1,4.255-1.242q4.186,0,4.186,4.232V23Zm-3.036-1.495a3.9,3.9,0,0,0,3.036-1.541V17.94a5.15,5.15,0,0,0-2.76-.782,3.39,3.39,0,0,0-2,.552,1.847,1.847,0,0,0-.782,1.61,2.045,2.045,0,0,0,.656,1.587A2.649,2.649,0,0,0,181.585,21.505ZM190.1,23V7.337l2-.943V23Z" transform="translate(15 67)" fill="#003d8f"/><path d="M64.564,12V8.256H60.736V12H59.488V3.6h1.248V7.08h3.828V3.6h1.248V12Zm8.076-.708a2.89,2.89,0,0,1-4.1,0,3.438,3.438,0,0,1-.75-2.352,3.461,3.461,0,0,1,.75-2.358,2.876,2.876,0,0,1,4.1,0A3.443,3.443,0,0,1,73.4,8.94,3.42,3.42,0,0,1,72.64,11.292Zm-2.052-.324a1.367,1.367,0,0,0,1.14-.54,2.367,2.367,0,0,0,.42-1.488,2.394,2.394,0,0,0-.42-1.494,1.451,1.451,0,0,0-2.268,0,2.394,2.394,0,0,0-.42,1.494,2.372,2.372,0,0,0,.42,1.482A1.35,1.35,0,0,0,70.588,10.968Zm6.5,1.176a3.434,3.434,0,0,1-1.356-.27,2.188,2.188,0,0,1-.96-.726l.888-.756a2.023,2.023,0,0,0,1.4.624q1.08,0,1.08-.66a.57.57,0,0,0-.2-.42,1.471,1.471,0,0,0-.408-.282q-.2-.09-.66-.27a3.935,3.935,0,0,1-1.482-.792,1.56,1.56,0,0,1-.474-1.176,1.461,1.461,0,0,1,.606-1.242,2.5,2.5,0,0,1,1.53-.45,2.639,2.639,0,0,1,2.148.924l-.9.72a1.65,1.65,0,0,0-1.248-.516,1.156,1.156,0,0,0-.63.15.468.468,0,0,0-.234.414.516.516,0,0,0,.282.45,5.878,5.878,0,0,0,.906.414,4.063,4.063,0,0,1,1.53.816,1.668,1.668,0,0,1,.486,1.26,1.556,1.556,0,0,1-.618,1.326A2.757,2.757,0,0,1,77.092,12.144Zm5.88,0q-1.368,0-1.368-1.524V6.948h-.948V5.868H81.6V3.936l1.248-.6V5.868H84.3v1.08H82.852V10.3q0,.7.6.7a1.738,1.738,0,0,0,.912-.288l-.156,1.164A2.725,2.725,0,0,1,82.972,12.144Zm4.236-7.452a.718.718,0,0,1-.528.216.755.755,0,0,1-.534-1.29.756.756,0,0,1,1.29.534A.738.738,0,0,1,87.208,4.692ZM86.056,12V5.868H87.3V12Zm7.152,0V8.34a1.529,1.529,0,0,0-.336-1.086,1.167,1.167,0,0,0-.888-.354q-1.32,0-1.32,1.416V12H89.416V5.868h1.248v.588a1.9,1.9,0,0,1,1.584-.732q2.208,0,2.208,2.616V12Zm5.34,2.4-.624-.96a3.572,3.572,0,0,0,1.77-.426,1.123,1.123,0,0,0,.5-.966v-.54a1.791,1.791,0,0,1-1.476.636A2.27,2.27,0,0,1,96.9,11.31,3.58,3.58,0,0,1,96.2,8.928a3.6,3.6,0,0,1,.7-2.346,2.265,2.265,0,0,1,1.842-.858,1.919,1.919,0,0,1,1.452.576V5.868h1.248V11.6a2.634,2.634,0,0,1-.708,2.052A3.605,3.605,0,0,1,98.548,14.4Zm.4-3.432a1.375,1.375,0,0,0,1.248-.72V7.6a1.507,1.507,0,0,0-1.248-.7,1.3,1.3,0,0,0-1.116.522,2.514,2.514,0,0,0-.384,1.506,2.477,2.477,0,0,0,.4,1.488A1.286,1.286,0,0,0,98.944,10.968Zm10.536,1.176a3.392,3.392,0,0,1-1.932-.546A2.8,2.8,0,0,1,106.42,10.1l1.176-.432a2.171,2.171,0,0,0,.768.93,2.023,2.023,0,0,0,1.164.342,1.709,1.709,0,0,0,1.11-.336,1.165,1.165,0,0,0,.414-.96,1.048,1.048,0,0,0-.114-.486,1.448,1.448,0,0,0-.258-.366,1.731,1.731,0,0,0-.444-.294q-.3-.15-.5-.228t-.582-.21q-.48-.168-.72-.264a5.452,5.452,0,0,1-.63-.318,2.335,2.335,0,0,1-.588-.444,2.159,2.159,0,0,1-.354-.582,2.08,2.08,0,0,1,.564-2.364,2.85,2.85,0,0,1,1.956-.636,2.942,2.942,0,0,1,1.7.456,2.2,2.2,0,0,1,.894,1.212l-1.152.384a1.339,1.339,0,0,0-.558-.618,1.873,1.873,0,0,0-.978-.234,1.507,1.507,0,0,0-.942.264.885.885,0,0,0-.342.744.776.776,0,0,0,.264.576,1.815,1.815,0,0,0,.552.372q.288.12.876.324l.534.2q.174.066.51.222a3.513,3.513,0,0,1,.516.282,4.56,4.56,0,0,1,.42.342,1.789,1.789,0,0,1,.366.438,2.447,2.447,0,0,1,.216.54,2.479,2.479,0,0,1,.09.678,2.262,2.262,0,0,1-.8,1.842A3.128,3.128,0,0,1,109.48,12.144Zm9.336-.852a2.89,2.89,0,0,1-4.1,0,3.438,3.438,0,0,1-.75-2.352,3.461,3.461,0,0,1,.75-2.358,2.876,2.876,0,0,1,4.1,0,3.443,3.443,0,0,1,.756,2.358A3.42,3.42,0,0,1,118.816,11.292Zm-2.052-.324a1.367,1.367,0,0,0,1.14-.54,2.367,2.367,0,0,0,.42-1.488,2.394,2.394,0,0,0-.42-1.494,1.451,1.451,0,0,0-2.268,0,2.394,2.394,0,0,0-.42,1.494,2.372,2.372,0,0,0,.42,1.482A1.35,1.35,0,0,0,116.764,10.968Zm6.5,1.176a3.434,3.434,0,0,1-1.356-.27,2.188,2.188,0,0,1-.96-.726l.888-.756a2.023,2.023,0,0,0,1.4.624q1.08,0,1.08-.66a.57.57,0,0,0-.2-.42,1.471,1.471,0,0,0-.408-.282q-.2-.09-.66-.27a3.935,3.935,0,0,1-1.482-.792,1.56,1.56,0,0,1-.474-1.176,1.461,1.461,0,0,1,.606-1.242,2.5,2.5,0,0,1,1.53-.45,2.639,2.639,0,0,1,2.148.924l-.9.72a1.65,1.65,0,0,0-1.248-.516,1.156,1.156,0,0,0-.63.15.468.468,0,0,0-.234.414.516.516,0,0,0,.282.45,5.878,5.878,0,0,0,.906.414,4.063,4.063,0,0,1,1.53.816,1.668,1.668,0,0,1,.486,1.26,1.556,1.556,0,0,1-.618,1.326A2.757,2.757,0,0,1,123.268,12.144Zm5.88,0q-1.368,0-1.368-1.524V6.948h-.948V5.868h.948V3.936l1.248-.6V5.868h1.452v1.08h-1.452V10.3q0,.7.6.7a1.738,1.738,0,0,0,.912-.288l-.156,1.164A2.725,2.725,0,0,1,129.148,12.144Zm5.436,0a2.563,2.563,0,0,1-2.034-.858,3.461,3.461,0,0,1-.75-2.358,3.42,3.42,0,0,1,.756-2.352,2.831,2.831,0,0,1,3.924-.12,2.866,2.866,0,0,1,.744,2.136,5.179,5.179,0,0,1-.048.8h-4.128a1.636,1.636,0,0,0,.474,1.188,1.482,1.482,0,0,0,1.074.456,1.526,1.526,0,0,0,1.272-.624l.816.84A2.588,2.588,0,0,1,134.584,12.144Zm-1.536-3.756h2.928a1.578,1.578,0,0,0-.42-1.176,1.369,1.369,0,0,0-.972-.384,1.542,1.542,0,0,0-1.062.378A1.641,1.641,0,0,0,133.048,8.388ZM142.756,12V8.34a1.529,1.529,0,0,0-.336-1.086,1.167,1.167,0,0,0-.888-.354q-1.32,0-1.32,1.416V12h-1.248V5.868h1.248v.588a1.9,1.9,0,0,1,1.584-.732Q144,5.724,144,8.34V12Zm4.452-7.308a.718.718,0,0,1-.528.216.755.755,0,0,1-.534-1.29.756.756,0,0,1,1.29.534A.738.738,0,0,1,147.208,4.692ZM146.056,12V5.868H147.3V12Zm6.06.144a1.875,1.875,0,0,1-1.452-.636V12h-1.248V3.912l1.248-.576v3a1.862,1.862,0,0,1,1.452-.612,2.265,2.265,0,0,1,1.842.858,3.6,3.6,0,0,1,.7,2.346,3.694,3.694,0,0,1-.678,2.376A2.267,2.267,0,0,1,152.116,12.144Zm-.156-1.176a1.229,1.229,0,0,0,1.074-.546,2.589,2.589,0,0,0,.378-1.494,2.576,2.576,0,0,0-.372-1.506,1.244,1.244,0,0,0-1.08-.522,1.556,1.556,0,0,0-1.3.7v2.676A1.425,1.425,0,0,0,151.96,10.968ZM156.52,12V3.924l1.248-.588V12Zm5.892.144a2.563,2.563,0,0,1-2.034-.858,3.461,3.461,0,0,1-.75-2.358,3.42,3.42,0,0,1,.756-2.352,2.831,2.831,0,0,1,3.924-.12,2.866,2.866,0,0,1,.744,2.136,5.179,5.179,0,0,1-.048.8h-4.128a1.636,1.636,0,0,0,.474,1.188,1.482,1.482,0,0,0,1.074.456,1.526,1.526,0,0,0,1.272-.624l.816.84A2.588,2.588,0,0,1,162.412,12.144Zm-1.536-3.756H163.8a1.578,1.578,0,0,0-.42-1.176,1.369,1.369,0,0,0-.972-.384,1.542,1.542,0,0,0-1.062.378A1.641,1.641,0,0,0,160.876,8.388Z" transform="translate(0 108)" fill="#fff"/><g transform="translate(15 15)"><g transform="translate(165.844 11.659)"><path d="M760.53,112.715h28.328v28.328H760.53Z" transform="translate(-760.53 -112.715)" fill="#fff"/><path d="M809.41,159.851a2.656,2.656,0,0,0,1.8-.678l-2.444-3.251c-1.144.757-1.6,1.5-1.582,2.191.033,1.06.92,1.738,2.224,1.738Zm.994-8.477a.932.932,0,0,0-1.046-.946.983.983,0,0,0-1.064.965c0,.537.161.83.9,1.784A2.309,2.309,0,0,0,810.4,151.374Z" transform="translate(-795.529 -141.006)" fill="#003d8f"/><path d="M762.392,141.975h27.4v-27.4h-27.4Zm19.113-20.14h4.639v12.9h-2.576V123.9h-2.063v-2.066Zm-7.621,5.544c-1.164-1.491-1.4-2.006-1.4-2.939,0-1.59,1.359-2.759,3.285-2.759a2.836,2.836,0,0,1,3.049,2.818c0,1.191-.489,2.077-1.994,3.328l2.229,3.024a4.26,4.26,0,0,0,.313-2.03c0-.1-.026-.39-.046-.707h2.071c0,.278.027.68.027.778a5.328,5.328,0,0,1-1.038,3.652l1.648,2.186h-2.548l-.575-.775a4.347,4.347,0,0,1-3.1,1.026c-2.608-.015-4.4-1.339-4.572-3.7-.1-1.411.841-2.862,2.649-3.905Zm-8.876-5.544h4.64v12.9h-2.577V123.9h-2.063Z" transform="translate(-761.927 -114.112)" fill="#013d8f"/></g><path d="M667.57,154.706a3.777,3.777,0,0,1-1.981-.563q-.272-.188-.685-.526v.863h-1.314v-12.9l1.314-.657v4.9a3.491,3.491,0,0,1,1.164-.845,3.3,3.3,0,0,1,1.389-.319A3.514,3.514,0,0,1,670.349,146a5.726,5.726,0,0,1,1.07,3.68,5.961,5.961,0,0,1-1.014,3.726A3.385,3.385,0,0,1,667.57,154.706Zm-.207-1.183a2.256,2.256,0,0,0,2.009-1.014,5.075,5.075,0,0,0,.676-2.835,5.011,5.011,0,0,0-.676-2.844,2.276,2.276,0,0,0-2.009-.986,2.54,2.54,0,0,0-1.474.46,3.254,3.254,0,0,0-.985,1v4.712a3.077,3.077,0,0,0,1.07,1.089,2.633,2.633,0,0,0,1.39.413Zm7.452,4.6,1.427-3.942-3.511-9.293h1.333l2.422,6.815c.037.125.094.3.169.526l.15.451.338-.976,2.459-6.814h1.408l-4.9,13.235Z" transform="translate(-520.147 -122.22)" fill="#003d8f"/><path d="M182.285,98.095a9.674,9.674,0,0,1-1.98-.2,10.268,10.268,0,0,1-6.767-4.934l-.037-.069a3.14,3.14,0,0,1,1.12-4.093,2.886,2.886,0,0,1,1.506-.425,2.973,2.973,0,0,1,2.594,1.555c.03.055.065.114.1.171l.315.438.424.437a4.1,4.1,0,0,0,1.933.955,4.185,4.185,0,0,0,3.333-.778,4.141,4.141,0,0,0,1.674-3.079,4.307,4.307,0,0,0-1.159-3.3s-8.955-9.5-9.356-9.937a11.15,11.15,0,0,1-1.08-1.309,9.136,9.136,0,0,1-1.464-6.118A10.078,10.078,0,0,1,174.7,63.17s.41-.708.531-.888a11.464,11.464,0,0,1,2.048-2.131A10.49,10.49,0,0,1,179,59.1a9.7,9.7,0,0,1,6.235-.8,9.982,9.982,0,0,1,6.538,4.826,3.056,3.056,0,0,1-1.105,4.164,2.8,2.8,0,0,1-1.452.4,2.949,2.949,0,0,1-2.576-1.547,3.9,3.9,0,0,0-2.606-1.881,3.867,3.867,0,0,0-4.656,3.572,4.051,4.051,0,0,0,1.067,3.086l9.155,9.639a10.435,10.435,0,0,1-1.165,15.426,10.177,10.177,0,0,1-6.149,2.11m-28.973,0a9.964,9.964,0,0,1-9.847-10.055V68.15a9.848,9.848,0,1,1,19.693,0V88.036a9.964,9.964,0,0,1-9.846,10.055m0-33.924a3.947,3.947,0,0,0-3.9,3.983V88.036a3.9,3.9,0,0,0,3.9,3.984,3.948,3.948,0,0,0,3.9-3.984V68.15a4,4,0,0,0-3.9-3.983m-38.276,14.44V95.053a2.973,2.973,0,1,1-5.945,0V66.01l5.945,12.6Zm16.126,11.58V61.13a2.973,2.973,0,1,0-5.945,0V77.589l5.945,12.6Zm-16.369-30.37-.027-.058a3.037,3.037,0,0,0-2.691-1.646,2.792,2.792,0,0,0-.6.063,2.957,2.957,0,0,0-2.347,2.953v.693l16.347,34.6a3.058,3.058,0,0,0,2.64,1.665,2.6,2.6,0,0,0,.68-.088,2.964,2.964,0,0,0,2.317-2.947V94.4s-15.884-33.657-16.32-34.583M86.844,98.091a9.677,9.677,0,0,1-6.959-2.949A10.1,10.1,0,0,1,77,88.036V68.15a10.09,10.09,0,0,1,2.887-7.105,9.688,9.688,0,0,1,13.918,0A10.09,10.09,0,0,1,96.69,68.15V88.036A10.1,10.1,0,0,1,93.8,95.142a9.677,9.677,0,0,1-6.959,2.949m0-33.924a3.832,3.832,0,0,0-2.757,1.168,4,4,0,0,0-1.144,2.815V88.036a4.014,4.014,0,0,0,1.129,2.831,3.875,3.875,0,0,0,5.53-.015,4,4,0,0,0,1.144-2.816V68.15a3.989,3.989,0,0,0-1.159-2.8,3.829,3.829,0,0,0-2.742-1.183M61.326,98.074a3.252,3.252,0,0,1-3.231-3.34V61.417l.006-.065a3.257,3.257,0,0,1,3.249-3.256,3.2,3.2,0,0,1,3.112,2.434,1.806,1.806,0,0,1,.056.234l.022.143a3.56,3.56,0,0,1,.041.528s.005,32.918,0,33.295a3.264,3.264,0,0,1-3.253,3.345" transform="translate(-58.095 -58.095)" fill="#003d8f"/></g></g></svg>