<?xml version="1.0" encoding="UTF-8"?>
<svg xmlns="http://www.w3.org/2000/svg" id="Artboard_30" data-name="Artboard 30" viewBox="0 0 64 64" width="512" height="512"><path d="M59,6H5A2,2,0,0,0,3,8V42H61V8A2,2,0,0,0,59,6ZM8,16a1,1,0,0,1,1.316-.949l2.537.845L13.2,15l-1.752-1.168A1,1,0,0,1,11,13V10a1,1,0,0,1,1.242-.97l7.642,1.91,3.669-1.835a1,1,0,0,1,.894,0l2,1A1,1,0,0,1,27,11v3a1,1,0,0,1-.5.868l-14,8a1,1,0,0,1-1.051-.036l-3-2A1,1,0,0,1,8,20ZM30,39H6V37H30Zm0-4H6V33H30Zm0-4H6V29H30Zm0-4H6V25H30Zm4,12H32V8h2ZM58.537,26.156a1,1,0,0,1-.3,1.814l-2.79.7L57.9,33.553a1,1,0,0,1-.448,1.342l-4,2a1,1,0,0,1-1.342-.448l-2.379-4.759-2.019,2.019A1,1,0,0,1,46,33V23H40a4,4,0,0,1,0-8H55a4,4,0,0,1,0,8H53.577ZM59,12H36V10H59Z"/><path d="M26.983,49c-.069,2.171-.4,6.465-1.927,9H38.944c-1.525-2.535-1.858-6.829-1.927-9Z"/><path d="M48,30.586l1.293-1.293A1,1,0,0,1,50,29a.968.968,0,0,1,.16.013,1,1,0,0,1,.735.54l2.552,5.105,2.211-1.105-2.553-5.106a1,1,0,0,1,.653-1.417l1.742-.436L48,21.822Z"/><path d="M25,13.42v-1.8l-1-.5L20.447,12.9a1,1,0,0,1-.689.075L13,11.281v1.184l2.555,1.7a1,1,0,0,1,0,1.664l-3,2a1,1,0,0,1-.871.117L10,17.387v2.078l2.04,1.36Z"/><path d="M3,45a2,2,0,0,0,2,2H59a2,2,0,0,0,2-2V44H3Z"/><path d="M57,19a2,2,0,0,0-2-2H40a2,2,0,0,0,0,4h6V20a1,1,0,0,1,1.537-.844L50.434,21H55A2,2,0,0,0,57,19Z"/></svg>
